<mxfile host="app.diagrams.net" agent="Mozilla/5.0 (Windows NT 10.0; Win64; x64) AppleWebKit/537.36 (KHTML, like Gecko) Chrome/130.0.0.0 Safari/537.36" version="24.8.4">
  <diagram name="Page-1" id="G16pAqIpUcdvyVwdcto2">
    <mxGraphModel dx="934" dy="1625" grid="1" gridSize="10" guides="1" tooltips="1" connect="1" arrows="1" fold="1" page="1" pageScale="1" pageWidth="850" pageHeight="1100" math="0" shadow="0">
      <root>
        <mxCell id="0" />
        <mxCell id="1" parent="0" />
        <mxCell id="Ty9kTZ0MpguVtiddFOnn-16" style="edgeStyle=orthogonalEdgeStyle;rounded=0;orthogonalLoop=1;jettySize=auto;html=1;exitX=0;exitY=0.5;exitDx=0;exitDy=0;" edge="1" parent="1" source="Ty9kTZ0MpguVtiddFOnn-6" target="Ty9kTZ0MpguVtiddFOnn-10">
          <mxGeometry relative="1" as="geometry" />
        </mxCell>
        <mxCell id="Ty9kTZ0MpguVtiddFOnn-41" style="edgeStyle=orthogonalEdgeStyle;rounded=0;orthogonalLoop=1;jettySize=auto;html=1;exitX=1;exitY=0.75;exitDx=0;exitDy=0;entryX=0.5;entryY=1;entryDx=0;entryDy=0;" edge="1" parent="1" source="Ty9kTZ0MpguVtiddFOnn-6" target="Ty9kTZ0MpguVtiddFOnn-8">
          <mxGeometry relative="1" as="geometry" />
        </mxCell>
        <mxCell id="Ty9kTZ0MpguVtiddFOnn-6" value="Exercises" style="rounded=0;whiteSpace=wrap;html=1;" vertex="1" parent="1">
          <mxGeometry x="470" y="410" width="120" height="60" as="geometry" />
        </mxCell>
        <mxCell id="Ty9kTZ0MpguVtiddFOnn-25" value="" style="edgeStyle=orthogonalEdgeStyle;rounded=0;orthogonalLoop=1;jettySize=auto;html=1;" edge="1" parent="1" source="Ty9kTZ0MpguVtiddFOnn-7" target="Ty9kTZ0MpguVtiddFOnn-9">
          <mxGeometry relative="1" as="geometry" />
        </mxCell>
        <mxCell id="Ty9kTZ0MpguVtiddFOnn-7" value="Excercise" style="rounded=0;whiteSpace=wrap;html=1;" vertex="1" parent="1">
          <mxGeometry x="230" width="120" height="60" as="geometry" />
        </mxCell>
        <mxCell id="Ty9kTZ0MpguVtiddFOnn-8" value="Progress" style="rounded=0;whiteSpace=wrap;html=1;" vertex="1" parent="1">
          <mxGeometry x="700" y="360" width="120" height="60" as="geometry" />
        </mxCell>
        <mxCell id="Ty9kTZ0MpguVtiddFOnn-9" value="Workout&#39;s Routine" style="rounded=0;whiteSpace=wrap;html=1;" vertex="1" parent="1">
          <mxGeometry x="150" y="-100" width="120" height="60" as="geometry" />
        </mxCell>
        <mxCell id="Ty9kTZ0MpguVtiddFOnn-26" style="edgeStyle=orthogonalEdgeStyle;rounded=0;orthogonalLoop=1;jettySize=auto;html=1;exitX=1;exitY=0;exitDx=0;exitDy=0;entryX=0;entryY=0.5;entryDx=0;entryDy=0;" edge="1" parent="1" source="Ty9kTZ0MpguVtiddFOnn-10" target="Ty9kTZ0MpguVtiddFOnn-9">
          <mxGeometry relative="1" as="geometry" />
        </mxCell>
        <mxCell id="Ty9kTZ0MpguVtiddFOnn-10" value="User&#39;s exercises" style="rounded=0;whiteSpace=wrap;html=1;" vertex="1" parent="1">
          <mxGeometry x="210" y="240" width="120" height="60" as="geometry" />
        </mxCell>
        <mxCell id="Ty9kTZ0MpguVtiddFOnn-32" value="User" style="shape=cube;whiteSpace=wrap;html=1;boundedLbl=1;backgroundOutline=1;darkOpacity=0.05;darkOpacity2=0.1;" vertex="1" parent="1">
          <mxGeometry x="350" y="-70" width="120" height="80" as="geometry" />
        </mxCell>
        <mxCell id="Ty9kTZ0MpguVtiddFOnn-33" value="Admin" style="shape=cube;whiteSpace=wrap;html=1;boundedLbl=1;backgroundOutline=1;darkOpacity=0.05;darkOpacity2=0.1;" vertex="1" parent="1">
          <mxGeometry x="680" y="-70" width="120" height="80" as="geometry" />
        </mxCell>
        <mxCell id="Ty9kTZ0MpguVtiddFOnn-34" value="Workout Application" style="swimlane;whiteSpace=wrap;html=1;" vertex="1" parent="1">
          <mxGeometry x="500" y="180" width="130" height="100" as="geometry" />
        </mxCell>
        <mxCell id="Ty9kTZ0MpguVtiddFOnn-39" value="" style="swimlane;horizontal=0;whiteSpace=wrap;html=1;" vertex="1" parent="1">
          <mxGeometry x="670" y="120" width="90" height="50" as="geometry" />
        </mxCell>
        <mxCell id="Ty9kTZ0MpguVtiddFOnn-42" style="edgeStyle=orthogonalEdgeStyle;rounded=0;orthogonalLoop=1;jettySize=auto;html=1;exitX=0;exitY=0.5;exitDx=0;exitDy=0;entryX=0.813;entryY=0.999;entryDx=0;entryDy=0;entryPerimeter=0;" edge="1" parent="1" source="Ty9kTZ0MpguVtiddFOnn-34" target="Ty9kTZ0MpguVtiddFOnn-33">
          <mxGeometry relative="1" as="geometry" />
        </mxCell>
        <mxCell id="Ty9kTZ0MpguVtiddFOnn-44" value="Exercises" style="text;html=1;align=center;verticalAlign=middle;whiteSpace=wrap;rounded=0;" vertex="1" parent="1">
          <mxGeometry x="685" y="90" width="60" height="30" as="geometry" />
        </mxCell>
      </root>
    </mxGraphModel>
  </diagram>
</mxfile>
